# Blender v2.62 (sub 0) OBJ File: ''
# www.blender.org
mtllib skybox.mtl
o Cube
v 100.000000 -100.000000 -99.999992
v 100.000000 -100.000000 100.000000
v -100.000015 -100.000000 99.999985
v -99.999962 -100.000000 -100.000038
v 100.000046 100.000000 -99.999947
v 99.999931 100.000000 100.000061
v -100.000038 100.000000 99.999962
v -99.999992 100.000000 -100.000000
vt 0.247159 0.009556
vt 0.491832 0.010575
vt 0.491081 0.342889
vt 0.246409 0.341869
vt 0.242880 0.672869
vt 0.493331 0.671849
vt 0.494100 1.004163
vt 0.243648 1.005183
vt 0.749197 0.336649
vt 0.987006 0.337668
vt 0.986276 0.669982
vt 0.748468 0.668962
vt 0.746811 0.336551
vt 0.747590 0.668865
vt 0.493830 0.669884
vt 0.493052 0.337571
vt 0.244700 0.341680
vt 0.490484 0.340674
vt 0.491238 0.668617
vt 0.245454 0.669623
vt 0.245179 0.345591
vt 0.243757 0.662185
vt 0.003780 0.661683
vt 0.005202 0.345089
vn 0.000000 1.000000 0.000000
vn 0.000000 -1.000000 0.000000
vn -1.000000 -0.000000 -0.000000
vn 0.000000 0.000000 -1.000000
vn 1.000000 0.000000 0.000000
vn -0.000000 -0.000000 1.000000
usemtl Material_skyBox.jpg
s off
f 1/1/1 4/2/1 3/3/1
f 1/1/1 3/3/1 2/4/1
f 5/5/2 6/6/2 7/7/2
f 5/5/2 7/7/2 8/8/2
f 1/9/3 2/10/3 6/11/3
f 1/9/3 6/11/3 5/12/3
f 2/13/4 3/14/4 7/15/4
f 2/13/4 7/15/4 6/16/4
f 3/17/5 4/18/5 8/19/5
f 3/17/5 8/19/5 7/20/5
f 4/21/6 1/22/6 5/23/6
f 4/21/6 5/23/6 8/24/6
